<?xml version="1.0" encoding="UTF-8"?>
<svg width="101.44mm" height="21.991mm" version="1.1" viewBox="0 0 101.44 21.991" xmlns="http://www.w3.org/2000/svg" xmlns:xlink="http://www.w3.org/1999/xlink">
 <g transform="translate(-49.14 -66.707)">
  <path d="m49.14 66.706h4.1769v1.3547h-2.4384v17.814h2.4384v1.3547h-4.1769zm13.727 5.4187c0 0.4064 0.06021 0.75259 0.18062 1.0386 0.12042 0.28598 0.32362 0.53434 0.6096 0.74507 0.30104 0.21073 0.68486 0.39135 1.1515 0.54187 0.48166 0.13547 1.0837 0.26341 1.8062 0.38382 0.87301 0.13547 1.6557 0.31609 2.3481 0.54187 0.69238 0.22578 1.2719 0.51929 1.7385 0.88053 0.48166 0.34619 0.85043 0.77517 1.1063 1.2869 0.25588 0.51176 0.38382 1.1364 0.38382 1.874 0 0.70744-0.13547 1.3547-0.4064 1.9417-0.25588 0.58702-0.63218 1.0913-1.1289 1.5127-0.48166 0.4064-1.0837 0.73002-1.8062 0.97085-0.70744 0.22578-1.5127 0.33867-2.4158 0.33867-0.96332 0-1.8138-0.12042-2.5513-0.36124-0.72249-0.24083-1.3396-0.57197-1.8514-0.99342-0.49671-0.4365-0.88054-0.94074-1.1515-1.5127s-0.42145-1.1891-0.45156-1.8514l1.9417-0.29351c0.03011 0.42145 0.12042 0.8429 0.27093 1.2644 0.15052 0.4064 0.38382 0.77517 0.69991 1.1063 0.31609 0.31609 0.72249 0.5795 1.2192 0.79022 0.51176 0.19568 1.1364 0.29351 1.874 0.29351 1.2041 0 2.1148-0.27093 2.7319-0.8128 0.63218-0.54187 0.94827-1.2869 0.94827-2.2352 0-0.42145-0.06773-0.79022-0.2032-1.1063-0.13547-0.33114-0.36124-0.61713-0.67733-0.85796-0.30104-0.24083-0.70744-0.4365-1.2192-0.58702-0.51176-0.16557-1.1364-0.30104-1.874-0.4064-1.731-0.24083-3.048-0.69239-3.9511-1.3547-0.90311-0.66228-1.3547-1.6482-1.3547-2.9577 0-0.69239 0.12794-1.3095 0.38382-1.8514 0.27093-0.55692 0.6397-1.0235 1.1063-1.3998 0.48166-0.39135 1.0536-0.69238 1.7159-0.90311 0.67733-0.21073 1.4149-0.31609 2.2126-0.31609 1.5804 0 2.8523 0.36877 3.8156 1.1063 0.97837 0.73754 1.5729 1.7535 1.7836 3.048l-1.9417 0.49671c-0.13547-0.94827-0.48918-1.6933-1.0612-2.2352-0.57197-0.55692-1.445-0.83538-2.619-0.83538-1.159 0-2.0094 0.24836-2.5513 0.74507-0.54187 0.49671-0.8128 1.1515-0.8128 1.9643zm12.011-2.619c0-0.34619 0.11289-0.6397 0.33867-0.88053 0.24083-0.24083 0.54187-0.36124 0.90311-0.36124s0.65476 0.12042 0.88053 0.36124c0.24083 0.24083 0.36124 0.53434 0.36124 0.88053 0 0.33114-0.12042 0.61713-0.36124 0.85796-0.22578 0.24083-0.51929 0.36124-0.88053 0.36124s-0.66228-0.12042-0.90311-0.36124c-0.22578-0.24083-0.33867-0.52682-0.33867-0.85796zm0.29351 3.7479h1.8965v10.657h-1.8965zm5.509 0h1.7836v1.603c0.3763-0.57197 0.82785-1.0235 1.3547-1.3547 0.54187-0.34619 1.2117-0.51929 2.0094-0.51929 0.51176 0 1.0009 0.07526 1.4676 0.22578 0.46661 0.15052 0.86548 0.3763 1.1966 0.67733 0.34619 0.28598 0.61713 0.65476 0.8128 1.1063 0.21073 0.4365 0.31609 0.94827 0.31609 1.5353v7.3829h-1.8965v-7.0894c0-0.4064-0.06773-0.75259-0.2032-1.0386-0.13547-0.28598-0.31609-0.51929-0.54187-0.69991-0.21073-0.19567-0.45156-0.33114-0.72249-0.4064-0.27093-0.09031-0.54187-0.13547-0.8128-0.13547-0.3763 0-0.73754 0.08279-1.0837 0.24836-0.34619 0.16557-0.65476 0.39888-0.92569 0.69991-0.25588 0.30104-0.46661 0.67733-0.63218 1.1289-0.15052 0.4365-0.22578 0.93322-0.22578 1.4901v5.8025h-1.8965zm21.788 1.1063c-0.10537-0.12042-0.24836-0.2032-0.42898-0.24836-0.16557-0.04515-0.33114-0.06773-0.49671-0.06773-0.24083 0-0.45156 0.03763-0.63218 0.11289-0.18062 0.07526-0.30856 0.15052-0.38382 0.22578 0.30103 0.30104 0.52681 0.66981 0.67733 1.1063 0.15052 0.4365 0.22578 0.87301 0.22578 1.3095 0 0.60208-0.12042 1.1439-0.36125 1.6256-0.22577 0.46661-0.54186 0.86548-0.94826 1.1966-0.4064 0.31609-0.87301 0.55692-1.3998 0.72249s-1.0837 0.24836-1.6708 0.24836c-0.4365 0-0.80528-0.0301-1.1063-0.09031-0.30104-0.07526-0.51929-0.11289-0.65476-0.11289-0.25588 0-0.48919 0.08279-0.69991 0.24836-0.21073 0.16557-0.31609 0.38382-0.31609 0.65476 0 0.28599 0.11289 0.49671 0.33867 0.63218 0.22578 0.13547 0.60208 0.2333 1.1289 0.29351l3.0932 0.29351c1.1289 0.10536 1.9868 0.36124 2.5739 0.76764 0.60207 0.4064 0.90311 1.0461 0.90311 1.9191 0 0.63218-0.15052 1.1665-0.45155 1.603-0.28599 0.4365-0.68486 0.79775-1.1966 1.0837-0.49671 0.28598-1.0762 0.48919-1.7385 0.6096-0.66228 0.13547-1.3622 0.2032-2.0997 0.2032-0.67733 0-1.3095-0.06021-1.8965-0.18062-0.57197-0.10536-1.0687-0.27846-1.4901-0.51929-0.4064-0.22578-0.73002-0.52682-0.97085-0.90311-0.24083-0.36124-0.36124-0.79775-0.36124-1.3095 0-0.63218 0.15804-1.159 0.47413-1.5804 0.31609-0.42145 0.66981-0.73002 1.0612-0.92569-0.75259-0.3763-1.1289-0.94074-1.1289-1.6933 0-0.39135 0.12794-0.75259 0.38382-1.0837 0.25588-0.34619 0.61713-0.62465 1.0837-0.83538-0.34619-0.27093-0.65476-0.63218-0.92569-1.0837-0.25588-0.46661-0.38382-1.0386-0.38382-1.7159 0-0.63218 0.12042-1.1891 0.36124-1.6708 0.24083-0.48166 0.56444-0.88053 0.97085-1.1966 0.4064-0.33114 0.86548-0.5795 1.3772-0.74507 0.52682-0.18062 1.0687-0.27093 1.6256-0.27093 0.48166 0 0.93322 0.05268 1.3547 0.15804 0.4365 0.10536 0.8128 0.24083 1.1289 0.4064 0.24083-0.21073 0.53434-0.39135 0.88053-0.54187 0.36125-0.16557 0.80528-0.24836 1.3321-0.24836 0.42145 0 0.79022 0.06021 1.1063 0.18062zm-7.9248 2.461c0 0.8128 0.24083 1.4299 0.72249 1.8514 0.49671 0.42145 1.0913 0.63218 1.7836 0.63218s1.2794-0.21073 1.7611-0.63218c0.49671-0.42145 0.74507-1.0386 0.74507-1.8514s-0.24836-1.4375-0.74507-1.874c-0.48166-0.4365-1.0687-0.65476-1.7611-0.65476s-1.2869 0.21825-1.7836 0.65476c-0.48166 0.4365-0.72249 1.0612-0.72249 1.874zm0.31609 6.9314c-0.31609 0.13547-0.57197 0.36124-0.76764 0.67733-0.18062 0.31609-0.27093 0.69238-0.27093 1.1289 0 0.66228 0.29351 1.1364 0.88054 1.4224s1.3095 0.42898 2.1675 0.42898c0.52682 0 1.016-0.04515 1.4676-0.13547 0.45156-0.07526 0.83538-0.2032 1.1515-0.38382 0.33114-0.16557 0.58702-0.3763 0.76764-0.63218 0.19567-0.24083 0.29351-0.51929 0.29351-0.83538 0-0.4064-0.15804-0.71496-0.47413-0.92569-0.30104-0.19567-0.83538-0.33114-1.603-0.4064zm18.672 0.15804h-1.7836v-1.603c-0.3763 0.57197-0.82786 1.0311-1.3547 1.3772-0.51176 0.33114-1.1665 0.49671-1.9643 0.49671-0.51176 0-0.99342-0.07526-1.445-0.22578-0.45155-0.15052-0.85043-0.36877-1.1966-0.65476-0.33114-0.30104-0.60207-0.66981-0.8128-1.1063-0.19567-0.45156-0.29351-0.97084-0.29351-1.5579v-7.3829h1.8965v7.0894c0 0.4064 0.0602 0.75259 0.18063 1.0386 0.13547 0.28598 0.30856 0.52682 0.51929 0.72249 0.22577 0.18062 0.4666 0.31609 0.72248 0.4064 0.27094 0.07526 0.54188 0.11289 0.81281 0.11289 0.36124 0 0.71496-0.08279 1.0612-0.24836 0.34619-0.16557 0.64723-0.39888 0.90311-0.69991 0.25589-0.30104 0.45909-0.66981 0.6096-1.1063 0.16557-0.45156 0.24836-0.95579 0.24836-1.5127v-5.8025h1.8965zm3.6125-15.804h1.8965v15.804h-1.8965zm11.966 15.804c-0.0602-0.12042-0.12041-0.30856-0.18063-0.56444-0.0451-0.25588-0.0677-0.53434-0.0677-0.83538-0.39135 0.48166-0.87301 0.88053-1.445 1.1966s-1.302 0.47413-2.19 0.47413c-0.49671 0-0.95579-0.07526-1.3772-0.22578-0.42145-0.13547-0.79022-0.33114-1.1063-0.58702s-0.56445-0.57197-0.74507-0.94827c-0.16557-0.3763-0.24836-0.79022-0.24836-1.2418 0-0.70744 0.18815-1.2945 0.56445-1.7611 0.39135-0.48166 0.91064-0.85796 1.5579-1.1289 0.66228-0.28598 1.4224-0.48166 2.2804-0.58702 0.85796-0.12042 1.7536-0.18062 2.6868-0.18062v-0.65476c0-0.72249-0.18815-1.3095-0.56444-1.7611-0.3763-0.45156-0.97085-0.67733-1.7836-0.67733s-1.4149 0.2032-1.8062 0.6096c-0.3763 0.39135-0.5795 0.87301-0.6096 1.445l-1.8965-0.27093c0.0602-0.54187 0.21824-1.0085 0.47413-1.3998 0.25589-0.4064 0.5795-0.74507 0.97085-1.016 0.4064-0.27093 0.85796-0.47413 1.3547-0.6096 0.51176-0.13547 1.0386-0.2032 1.5804-0.2032 1.2794 0 2.2879 0.33114 3.0254 0.99342s1.1063 1.5654 1.1063 2.7093v5.7799c0 0.34619 0.0226 0.62465 0.0677 0.83538 0.0451 0.19567 0.10534 0.39887 0.18063 0.6096zm-3.3189-1.1966c0.39135 0 0.76764-0.06773 1.1289-0.2032 0.37629-0.13547 0.69991-0.32362 0.97084-0.56444 0.28599-0.25588 0.51177-0.56444 0.67734-0.92569 0.18062-0.36124 0.27093-0.76764 0.27093-1.2192v-0.92569c-0.76765 0-1.4676 0.04516-2.0997 0.13547-0.63218 0.07526-1.174 0.2032-1.6256 0.38382-0.45155 0.16557-0.80527 0.39135-1.0612 0.67733-0.25588 0.27093-0.38382 0.59455-0.38382 0.97085 0 0.54187 0.18815 0.95579 0.56444 1.2418 0.39135 0.28598 0.91064 0.42898 1.5579 0.42898zm14.089-7.7216c-0.15052-0.13547-0.33114-0.24083-0.54187-0.31609-0.19567-0.09031-0.42145-0.13547-0.67733-0.13547-0.36125 0-0.70744 0.09031-1.0386 0.27093-0.31609 0.16557-0.59455 0.4064-0.83538 0.72249s-0.43651 0.69991-0.58703 1.1515c-0.13547 0.4365-0.2032 0.92569-0.2032 1.4676v5.7573h-1.8965v-10.657h1.7836v1.6708c0.27093-0.64723 0.68486-1.1289 1.2418-1.445 0.57197-0.33114 1.1966-0.49671 1.874-0.49671 0.21073 0 0.42898 0.02258 0.65476 0.06773 0.24083 0.03011 0.45908 0.09031 0.65475 0.18062zm6.525 12.237v-1.3547h2.4384v-17.814h-2.4384v-1.3547h4.1769v20.523z" fill="#263427" stroke-width=".26458" aria-label="[ Singular ]"/>
 </g>
</svg>
